HIERARCHY
ROOT root
{
	OFFSET 0.000000 0.000000 0.000000
	CHANNELS 6 Xposition Yposition Zposition Zrotation Yrotation Xrotation
	JOINT lhip
	{
		OFFSET 0.058581 -0.082280 -0.017664
		CHANNELS 3 Zrotation Yrotation Xrotation
		JOINT lknee
		{
			OFFSET 0.043451 -0.386469 0.008037
			CHANNELS 3 Zrotation Yrotation Xrotation
			JOINT lankle
			{
				OFFSET -0.014790 -0.426874 -0.037428
				CHANNELS 3 Zrotation Yrotation Xrotation
				JOINT ltoe
				{
					OFFSET 0.041054 -0.060286 0.122042
					CHANNELS 3 Zrotation Yrotation Xrotation
					End Site
					{
						OFFSET 0.000000 0.000000 0.000000
					}
				}
			}
		}
	}
	JOINT rhip
	{
		OFFSET -0.060310 -0.090513 -0.013543
		CHANNELS 3 Zrotation Yrotation Xrotation
		JOINT rknee
		{
			OFFSET -0.043257 -0.383688 -0.004843
			CHANNELS 3 Zrotation Yrotation Xrotation
			JOINT rankle
			{
				OFFSET 0.019056 -0.420046 -0.034562
				CHANNELS 3 Zrotation Yrotation Xrotation
				JOINT rtoe
				{
					OFFSET -0.034840 -0.062106 0.130323
					CHANNELS 3 Zrotation Yrotation Xrotation
					End Site
					{
						OFFSET 0.000000 0.000000 0.000000
					}
				}
			}
		}
	}
	JOINT lowerback
	{
		OFFSET 0.004439 0.124404 -0.038385
		CHANNELS 3 Zrotation Yrotation Xrotation
		JOINT upperback
		{
			OFFSET 0.004488 0.137956 0.026820
			CHANNELS 3 Zrotation Yrotation Xrotation
			JOINT chest
			{
				OFFSET -0.002265 0.056032 0.002855
				CHANNELS 3 Zrotation Yrotation Xrotation
				JOINT lowerneck
				{
					OFFSET -0.013390 0.211636 -0.033468
					CHANNELS 3 Zrotation Yrotation Xrotation
					JOINT upperneck
					{
						OFFSET 0.010113 0.088937 0.050410
						CHANNELS 3 Zrotation Yrotation Xrotation
						End Site
						{
							OFFSET 0.000000 0.000000 0.000000
						}
					}
				}
				JOINT lclavicle
				{
					OFFSET 0.071702 0.114000 -0.018898
					CHANNELS 3 Zrotation Yrotation Xrotation
					JOINT lshoulder
					{
						OFFSET 0.122921 0.045205 -0.019046
						CHANNELS 3 Zrotation Yrotation Xrotation
						JOINT lelbow
						{
							OFFSET 0.255332 -0.015649 -0.022946
							CHANNELS 3 Zrotation Yrotation Xrotation
							JOINT lwrist
							{
								OFFSET 0.265709 0.012698 -0.007375
								CHANNELS 3 Zrotation Yrotation Xrotation
								End Site
								{
									OFFSET 0.000000 0.000000 0.000000
								}
							}
						}
					}
				}
				JOINT rclavicle
				{
					OFFSET -0.082954 0.112472 -0.023707
					CHANNELS 3 Zrotation Yrotation Xrotation
					JOINT rshoulder
					{
						OFFSET -0.113228 0.046853 -0.008472
						CHANNELS 3 Zrotation Yrotation Xrotation
						JOINT relbow
						{
							OFFSET -0.260127 -0.014369 -0.031269
							CHANNELS 3 Zrotation Yrotation Xrotation
							JOINT rwrist
							{
								OFFSET -0.269108 0.006794 -0.006027
								CHANNELS 3 Zrotation Yrotation Xrotation
								End Site
								{
									OFFSET 0.000000 0.000000 0.000000
								}
							}
						}
					}
				}
			}
		}
	}
}
MOTION
Frames: 15
Frame Time: 0.033333
1.149226 0.173165 0.985038 -88.693436 2.524076 86.733904 0.715060 -1.405070 6.024046 -2.611904 -17.502461 2.360295 6.555790 7.566796 -18.103056 0.000000 -0.000000 0.000000 3.064648 -2.224062 2.789730 3.777832 3.300663 7.104402 1.989940 -3.624305 -12.891092 0.000000 -0.000000 0.000000 -2.692067 2.835408 4.844963 1.513930 -1.621798 3.109413 1.915616 -1.510068 4.572740 4.793479 1.902990 -3.472355 2.889282 -2.164137 3.066374 -24.292029 4.827055 3.153679 -64.230445 -6.604585 8.209836 11.923186 -30.661797 3.838750 -0.712069 -2.223820 -11.452729 22.458810 -3.489787 2.807525 64.375702 0.688857 10.400345 -16.501834 29.228103 -3.617352 6.903695 0.785978 -10.763010 
1.149476 0.172810 0.985284 -88.805662 2.580935 86.955152 0.630130 -1.655111 5.975900 -2.417710 -17.483410 2.100313 6.304704 7.860653 -17.912742 0.000000 -0.000000 0.000000 3.138053 -1.860320 2.684228 3.778000 3.433931 6.802411 2.288704 -3.921166 -12.649824 0.000000 -0.000000 0.000000 -2.763569 2.770955 4.355922 1.619289 -1.426850 3.244902 1.790606 -1.597196 5.431267 5.230344 3.064398 -4.884078 3.181250 -2.320515 3.638432 -24.445574 4.931843 2.244169 -63.992690 -6.702196 9.066865 11.691536 -30.294186 4.314527 -0.226557 -2.839986 -10.965342 23.013688 -3.802944 1.697592 63.895634 0.657332 11.334568 -16.342755 28.919898 -3.679547 6.506642 0.893514 -10.955047 
1.150375 0.172352 0.985400 -88.890905 2.666589 86.982398 0.643669 -1.653588 5.823469 -2.425481 -17.424146 2.264410 6.322160 7.926140 -17.845038 0.000000 -0.000000 0.000000 3.164447 -1.854614 2.618383 3.794411 3.519434 6.692948 2.333283 -3.903496 -12.547003 0.000000 -0.000000 0.000000 -2.735920 2.749883 4.444771 1.685956 -1.510740 3.145542 1.783354 -1.665803 5.348538 5.466134 2.459549 -4.036829 3.375763 -2.805048 4.424255 -24.505468 4.965922 2.316529 -63.983984 -6.781263 9.064912 11.565049 -29.921894 4.177259 -0.123410 -2.394508 -10.577333 23.094543 -3.813532 1.794583 63.826861 0.645895 11.350139 -16.302256 28.794401 -3.543527 6.489189 0.850559 -10.571219 
1.150870 0.171516 0.985549 -88.942188 2.649377 86.823970 0.491040 -1.690075 5.984298 -2.345817 -17.416343 2.261926 6.374809 7.995654 -17.706640 0.000000 -0.000000 0.000000 3.019146 -1.823840 2.854709 3.858911 3.499591 6.481615 2.344527 -3.863174 -12.480147 0.000000 -0.000000 0.000000 -2.825817 2.770421 4.647439 1.760653 -1.651526 3.140063 1.750773 -1.680756 5.333025 5.817372 1.445622 -2.684390 3.433589 -3.658745 5.792540 -24.551320 4.983274 2.496207 -63.896770 -6.896349 9.128378 11.454239 -29.359975 4.270232 -0.632283 -2.514864 -10.456747 23.079529 -3.830649 2.002548 63.873264 0.657078 11.321099 -16.279799 28.414262 -3.520740 6.865250 0.789163 -10.538837 
1.151435 0.171239 0.985502 -89.138273 2.691863 86.784929 0.509137 -1.630933 5.992735 -2.365305 -17.441987 2.270498 6.481964 8.142563 -17.703323 0.000000 -0.000000 0.000000 3.040930 -1.674911 2.845438 3.889538 3.583100 6.494372 2.344035 -3.875763 -12.442325 0.000000 -0.000000 0.000000 -2.919222 2.780914 4.585309 1.866948 -1.657356 3.277621 1.708589 -1.751521 5.385907 6.112621 0.976673 -1.724514 3.471748 -4.020742 6.956110 -24.420504 5.073908 2.704837 -64.027214 -7.016734 9.191272 11.514827 -28.968171 4.206470 -0.793558 -2.359177 -10.549740 22.845690 -3.938771 1.913103 64.127176 0.601785 11.464028 -16.027252 28.202725 -3.387283 7.251359 0.475377 -10.974252 
1.152623 0.170561 0.985494 -89.420192 2.783027 86.855098 0.517818 -1.632188 5.795298 -2.356197 -17.308244 2.366956 6.663397 8.337618 -17.639635 0.000000 -0.000000 0.000000 3.058083 -1.545549 2.593793 3.941087 3.627965 6.596816 2.277983 -3.890294 -12.339679 0.000000 -0.000000 0.000000 -2.967082 2.755602 4.505271 1.965199 -1.675368 3.372256 1.681418 -1.742055 5.456043 6.341174 0.295329 -0.050457 3.696417 -4.488556 7.974425 -24.310013 5.084646 3.035935 -64.161424 -7.115019 9.197226 11.519224 -28.323976 4.051297 -0.959811 -2.106261 -10.491935 22.765746 -3.885815 2.080208 64.211772 0.648771 11.432786 -16.041292 27.796632 -3.451239 7.292019 0.263715 -11.066015 
1.154015 0.169594 0.985476 -89.587603 2.842179 86.699188 0.494390 -1.589129 5.768607 -2.411336 -17.259846 2.551394 6.708502 8.460254 -17.647286 0.000000 -0.000000 0.000000 2.961159 -1.559197 2.563552 4.068440 3.623031 6.751982 2.380556 -3.663816 -12.320658 0.000000 -0.000000 0.000000 -3.073894 2.777777 4.877877 2.099442 -1.775727 3.378993 1.675350 -1.814757 5.377275 6.533574 -0.636848 1.660051 3.707724 -5.204736 9.468530 -24.194596 5.110971 3.441748 -64.225075 -7.191683 9.181636 11.498151 -27.843850 4.144009 -1.176538 -2.105394 -10.518806 22.646291 -4.042752 2.167847 64.169188 0.730833 11.296885 -15.818839 27.554642 -3.270064 7.400256 0.325418 -11.050213 
1.155820 0.168764 0.985493 -89.978073 2.963826 86.714765 0.557382 -1.550976 5.529764 -2.530839 -17.180958 2.775858 6.787645 8.682598 -17.691069 0.000000 -0.000000 0.000000 2.973147 -1.423724 2.246357 4.170970 3.656909 6.985117 2.439079 -3.552423 -12.136114 0.000000 -0.000000 0.000000 -3.115649 2.738365 5.127702 2.198499 -1.797209 3.283266 1.628604 -1.838234 5.569848 6.998708 -1.819385 3.071584 3.580130 -6.272874 10.812035 -24.249778 5.353583 3.554197 -63.967426 -7.245160 9.173964 11.386916 -27.430596 4.246696 -1.438413 -1.719756 -10.099963 22.752451 -4.063248 2.248003 64.017760 0.920962 11.283223 -15.833798 27.333762 -3.323795 7.296200 0.394569 -10.677478 
1.157601 0.167917 0.985392 -90.297216 3.098933 86.271502 0.663073 -1.445975 5.762022 -2.678910 -16.982258 3.032608 6.894663 8.743648 -17.841180 0.000000 -0.000000 0.000000 3.072175 -1.436604 2.613063 4.115438 3.882986 6.886670 2.328686 -3.476151 -12.096622 0.000000 -0.000000 0.000000 -3.272180 2.905327 4.955339 2.457781 -2.107579 4.847146 1.626632 -1.829079 5.663476 7.309825 -2.745785 4.082046 3.619423 -7.223550 11.573714 -24.175730 4.883340 3.909575 -64.040489 -7.613449 9.113473 11.702150 -27.049985 3.502305 -1.575469 -1.697865 -10.112048 22.616750 -3.656848 1.994682 64.061391 1.130455 11.170364 -16.018011 27.266926 -3.724899 7.600407 0.151826 -11.008954 
1.160109 0.166418 0.985348 -90.823555 3.262333 86.296134 0.675101 -1.354008 5.258524 -2.807972 -16.854084 3.671124 7.127941 9.023341 -17.971694 0.000000 -0.000000 0.000000 3.152318 -1.324022 2.383792 4.073747 4.196061 6.805807 2.348700 -3.365338 -11.844642 0.000000 -0.000000 0.000000 -3.330319 2.849647 5.156712 2.584450 -2.190778 5.204039 1.596591 -1.700826 5.699299 7.364785 -3.821393 5.965459 3.575001 -7.908400 12.926862 -24.142229 4.871461 4.334923 -63.760478 -7.676844 8.950248 11.810047 -26.825275 3.335055 -1.801757 -1.429791 -9.890732 22.605346 -3.678409 2.362324 63.936715 1.310283 10.951090 -16.096583 27.358242 -3.910744 7.698409 0.057266 -10.923234 
1.161886 0.165002 0.985417 -91.144275 3.447230 86.164161 0.668206 -1.368562 4.943705 -2.874393 -16.729244 4.394032 7.285080 9.366250 -18.256166 0.000000 -0.000000 0.000000 3.183840 -1.359875 2.259196 4.140144 4.216602 6.982070 2.439955 -3.196412 -11.588186 0.000000 -0.000000 0.000000 -3.339956 2.880548 5.592501 2.718013 -2.307275 5.574301 1.623009 -1.826860 5.917635 7.558716 -4.199558 6.772615 3.814938 -8.352548 13.340602 -24.056815 4.997955 4.213684 -63.677605 -7.689672 8.925694 11.729077 -26.628015 3.231071 -1.830906 -1.430934 -9.883202 22.622847 -3.748150 2.162754 63.730169 1.504283 10.927617 -16.112398 27.515599 -4.081905 7.524132 0.015540 -10.901348 
1.164156 0.163676 0.985573 -91.860081 3.618300 86.416465 0.650139 -1.277527 4.055142 -2.983946 -16.356548 5.342475 7.505511 9.603937 -18.419349 0.000000 -0.000000 0.000000 3.326990 -1.112829 1.462902 4.051519 4.411687 7.544879 2.689562 -3.048393 -11.660705 0.000000 -0.000000 0.000000 -3.324270 2.866849 6.028125 2.786311 -2.208197 5.067934 1.603011 -1.947821 6.203052 7.604212 -4.710583 7.578430 3.586836 -8.663158 14.222756 -23.873970 5.382725 4.460257 -63.580903 -7.627831 8.794157 11.670671 -26.552711 3.185095 -1.795301 -1.705536 -10.022680 22.626828 -4.112018 2.273074 63.571713 1.598925 10.981805 -16.018076 27.866119 -3.955001 7.394498 0.167837 -10.938308 
1.166192 0.162516 0.985627 -92.655420 3.936107 86.431745 0.699117 -1.522465 3.418018 -3.052342 -16.010070 6.337576 7.667851 10.386693 -18.688071 0.000000 -0.000000 0.000000 3.672794 -0.797625 0.649962 3.942214 4.589858 8.632457 3.069897 -2.812164 -11.835307 0.000000 -0.000000 0.000000 -3.305627 2.909566 6.736197 2.989116 -2.112034 4.799501 1.698216 -2.108560 6.401593 7.815524 -5.197062 7.761096 3.194673 -9.096813 14.869952 -23.773045 5.758583 4.339447 -63.478943 -7.477568 8.792201 11.512123 -26.383560 3.287337 -1.921078 -1.797614 -9.982056 22.546501 -4.388076 2.066365 63.237619 1.564744 11.281290 -15.923487 28.259704 -3.672798 7.110610 0.747178 -10.863673 
1.170832 0.161991 0.986179 -94.132408 4.373080 86.144530 0.950700 -1.473162 2.902959 -3.124576 -15.365956 7.435071 7.803501 11.266115 -18.956901 0.000000 -0.000000 0.000000 4.420543 0.400757 -0.945578 3.638230 4.381571 11.328974 3.564876 -2.780088 -12.674391 0.000000 -0.000000 0.000000 -3.394485 2.679981 8.027398 3.180838 -1.566644 4.746820 1.846299 -1.990383 6.347177 7.913032 -4.892022 8.017745 3.014808 -9.047040 15.353210 -23.732630 5.719959 4.215169 -63.273576 -7.442543 8.595627 11.610918 -26.128254 2.564999 -1.926536 -1.566680 -9.677801 22.499030 -4.303302 1.895645 63.151247 1.855149 11.411845 -15.921179 28.438089 -3.967074 7.476080 0.553812 -10.763949 
1.173998 0.162296 0.986595 -95.479162 4.872156 86.215081 1.326389 -1.228685 2.385278 -3.111857 -15.333954 8.208024 7.948187 11.906957 -19.405996 0.000000 -0.000000 0.000000 5.323614 1.641680 -4.051053 3.414318 4.027304 16.870741 4.646121 -3.393519 -15.928262 0.000000 -0.000000 0.000000 -3.805785 2.415228 8.733778 3.644882 -1.209318 4.692266 2.058104 -2.103606 6.525263 8.454207 -4.407845 7.788376 2.484721 -9.403930 15.845209 -23.542959 5.923586 4.276406 -63.208747 -7.016649 8.595468 11.877309 -26.711863 1.975365 -1.286838 -1.544877 -9.788616 22.959601 -4.387019 1.935891 62.545268 1.464538 11.775387 -16.874078 30.528153 -4.485164 6.757061 1.008309 -10.624044 
